<?xml version="1.0" standalone="no"?>
<!DOCTYPE svg PUBLIC "-//W3C//DTD SVG 20010904//EN"
 "http://www.w3.org/TR/2001/REC-SVG-20010904/DTD/svg10.dtd">
<svg version="1.0" xmlns="http://www.w3.org/2000/svg"
 width="200.000000pt" height="200.000000pt" viewBox="0 0 640.000000 640.000000"
 preserveAspectRatio="xMidYMid meet">

<g transform="translate(0.000000,640.000000) scale(0.100000,-0.100000)"
fill="#000000" stroke="none">
<path d="M3182 5349 c-89 -9 -168 -45 -226 -104 -22 -24 -65 -68 -94 -98 -35
-37 -69 -61 -100 -73 -26 -9 -81 -32 -122 -50 -72 -32 -74 -33 -40 -7 99 76
236 251 214 273 -11 10 -104 -14 -169 -44 -27 -12 -71 -44 -98 -71 -45 -46
-107 -152 -107 -183 0 -18 -68 -132 -79 -132 -4 0 -45 -35 -91 -77 -77 -72
-89 -71 -34 2 26 36 57 102 78 170 19 64 30 125 22 125 -20 0 -95 -48 -138
-88 -85 -80 -122 -175 -132 -344 -5 -85 -6 -89 -67 -192 -60 -103 -80 -127
-59 -72 20 52 31 161 24 237 -9 104 -14 110 -57 63 -107 -116 -137 -271 -83
-422 26 -72 29 -133 12 -208 -8 -38 -18 -87 -22 -109 -6 -37 -8 -38 -14 -15
-5 14 -8 41 -9 61 -2 66 -76 259 -100 259 -14 0 -40 -74 -53 -150 -19 -111 10
-218 85 -314 50 -63 74 -128 86 -225 6 -49 14 -105 16 -123 3 -18 2 -26 -1
-18 -3 8 -12 29 -20 47 -8 17 -14 35 -14 40 0 27 -159 223 -182 223 -17 0 -19
-92 -5 -165 24 -117 87 -207 189 -271 62 -39 103 -91 159 -201 27 -53 49 -98
49 -100 0 -2 -24 20 -52 50 -29 29 -69 65 -88 79 -48 35 -160 91 -167 84 -9
-9 26 -115 54 -163 52 -89 162 -168 263 -188 74 -15 135 -54 220 -140 l85 -86
-75 39 c-88 47 -281 95 -294 73 -10 -15 87 -127 140 -163 80 -54 138 -68 276
-67 l117 2 118 -57 118 -56 -60 7 c-110 14 -271 5 -305 -18 -12 -8 -9 -15 19
-39 19 -16 59 -42 90 -57 50 -24 67 -27 161 -28 94 0 111 3 165 28 107 49 144
51 345 18 45 -7 48 -9 20 -10 -87 -3 -281 -79 -319 -124 -18 -23 86 -51 185
-50 69 0 91 5 145 30 35 16 87 50 114 75 72 64 131 94 210 107 39 7 85 17 103
22 56 18 47 2 -15 -27 -60 -29 -223 -177 -223 -203 0 -11 16 -13 80 -8 144 10
264 88 334 218 17 30 42 68 58 84 15 17 28 33 28 38 0 4 6 7 13 7 7 0 54 27
105 60 l92 59 -53 -62 c-29 -34 -63 -79 -75 -99 -30 -48 -73 -158 -67 -169 6
-9 63 9 115 36 45 23 118 92 148 140 28 44 62 145 62 185 0 37 46 130 84 170
19 19 50 57 70 83 20 27 36 46 36 42 0 -3 -12 -33 -26 -67 -32 -77 -54 -176
-54 -251 0 -56 0 -57 22 -46 42 23 117 110 147 172 37 74 48 158 33 248 -14
82 -4 147 41 269 l36 95 1 -105 c0 -103 26 -240 48 -262 12 -12 59 65 84 137
32 94 18 239 -33 323 -42 71 -54 137 -49 262 4 85 8 107 14 85 28 -103 53
-164 97 -230 27 -41 53 -75 58 -75 6 0 15 17 20 38 40 157 0 294 -122 413 -67
66 -94 108 -112 174 -9 33 -24 79 -32 103 -17 46 -12 68 7 30 30 -57 98 -132
167 -184 41 -31 77 -53 81 -50 12 12 -19 151 -45 206 -36 73 -112 146 -193
184 -70 32 -160 92 -160 107 0 4 -30 48 -67 96 -37 48 -60 83 -52 77 8 -6 35
-27 60 -47 52 -42 156 -93 229 -112 46 -12 50 -12 50 4 0 23 -64 128 -103 169
-51 53 -159 100 -252 111 -84 10 -158 32 -185 55 -8 8 -49 38 -90 66 -41 29
-68 50 -59 47 137 -47 252 -64 329 -49 l45 9 -54 52 c-107 103 -245 142 -379
107 -84 -21 -162 -20 -236 3 -34 11 -86 26 -116 34 l-55 15 90 1 c117 1 295
49 295 80 0 14 -112 59 -179 71 -84 15 -184 -6 -267 -57 -98 -59 -131 -69
-244 -76 -58 -4 -116 -10 -129 -13 -16 -5 -22 -4 -17 4 3 6 21 14 39 17 61 13
176 77 234 129 l57 53 -49 9 c-28 5 -83 6 -123 3z m126 -283 c21 -13 49 -39
64 -57 73 -97 168 -171 243 -190 22 -6 48 -13 59 -16 17 -5 18 -1 11 33 -15
84 -73 159 -160 208 l-30 17 40 -6 c22 -4 68 -16 103 -28 71 -23 120 -71 142
-142 22 -71 70 -159 108 -199 48 -50 112 -97 123 -90 15 9 10 117 -8 168 -10
27 -36 69 -58 94 -46 53 -29 47 73 -25 83 -59 99 -93 107 -219 8 -144 46 -255
105 -309 25 -22 26 -21 50 48 29 83 26 125 -15 222 l-17 40 21 -19 c11 -11 42
-49 67 -86 40 -59 46 -74 46 -121 0 -30 -9 -86 -21 -125 -37 -126 -38 -222 -1
-318 l11 -29 30 29 c52 50 83 128 83 206 -1 38 2 65 7 61 4 -4 19 -48 33 -96
32 -108 25 -149 -38 -235 -88 -120 -116 -191 -116 -294 l0 -59 51 27 c74 41
117 99 144 196 l15 53 -3 -115 c-3 -109 -4 -117 -32 -156 -17 -23 -50 -54 -74
-70 -79 -50 -158 -132 -191 -196 -37 -76 -39 -98 -5 -98 75 0 187 75 230 155
l16 30 -6 -35 c-4 -19 -20 -67 -36 -106 -35 -85 -79 -121 -179 -148 -108 -29
-183 -70 -239 -132 -28 -31 -51 -60 -51 -64 0 -14 67 -23 128 -17 56 5 115 31
160 70 43 39 21 -1 -42 -74 -77 -91 -98 -99 -264 -99 -100 0 -132 -4 -179 -22
-53 -19 -133 -65 -133 -75 0 -2 24 -15 53 -28 71 -33 150 -41 206 -21 90 33
79 14 -30 -49 -75 -43 -85 -46 -137 -42 -32 2 -86 16 -122 32 -92 40 -172 51
-260 38 -39 -6 -74 -14 -78 -17 -9 -9 58 -75 104 -102 27 -16 64 -27 108 -31
36 -3 66 -9 66 -13 0 -8 -144 -40 -182 -40 -44 0 -99 29 -162 86 -79 71 -163
112 -249 122 -37 5 -69 6 -72 4 -6 -6 40 -91 62 -117 31 -35 86 -72 133 -89
l45 -17 -87 6 c-48 3 -99 10 -114 15 -43 17 -87 59 -118 114 -69 121 -112 166
-208 220 -68 38 -72 36 -64 -30 10 -90 55 -162 136 -218 l25 -18 -25 7 c-14 4
-59 23 -100 44 -81 40 -124 88 -136 151 -14 81 -47 188 -69 227 -26 44 -100
123 -115 123 -12 0 -24 -63 -23 -127 0 -60 14 -100 57 -163 l30 -44 -30 21
c-16 12 -53 46 -83 76 -67 69 -83 119 -69 222 18 132 -5 277 -55 343 -14 19
-35 -2 -64 -67 -21 -46 -24 -65 -21 -125 3 -39 8 -79 12 -88 5 -10 4 -18 -1
-18 -5 0 -29 40 -52 90 -40 82 -42 94 -36 142 4 29 20 75 35 103 43 80 70 170
70 234 0 73 -9 121 -23 121 -6 0 -34 -24 -61 -52 -57 -59 -86 -126 -86 -198
-1 -74 -18 -25 -29 81 -12 119 -1 147 96 247 79 81 126 160 143 245 6 32 10
60 8 62 -1 2 -26 -6 -54 -16 -71 -27 -127 -79 -163 -151 -37 -72 -37 -70 -11
58 24 115 50 150 140 190 89 40 173 100 211 151 76 102 74 118 -10 108 -74 -8
-151 -46 -195 -97 -40 -45 -44 -44 -20 5 48 96 90 148 138 172 28 14 63 25 80
25 111 0 256 53 317 116 38 39 34 45 -31 64 -75 21 -155 8 -234 -39 l-51 -31
65 60 c128 119 156 128 309 95 103 -21 204 -16 276 15 27 12 51 23 54 25 6 7
-39 43 -84 68 -33 18 -56 22 -131 22 -101 0 -101 4 1 45 43 18 77 25 120 24
53 -1 69 -7 134 -47 99 -62 177 -87 268 -87 83 0 87 5 48 62 -41 60 -139 118
-201 118 -13 0 -24 5 -24 10 0 6 42 10 105 10 94 0 110 -3 143 -24z"/>
<path d="M2765 4095 c-96 -23 -168 -72 -214 -144 -44 -68 -57 -111 -92 -309
-51 -291 -34 -380 86 -441 73 -37 234 -42 337 -11 93 28 164 80 201 149 24 44
67 209 67 257 0 12 -28 14 -167 12 l-167 -3 -8 -45 c-4 -25 -10 -55 -13 -67
-5 -22 -2 -23 45 -23 62 0 66 -16 16 -66 -31 -31 -40 -34 -90 -34 -70 0 -106
29 -106 82 1 64 59 359 77 391 37 64 138 88 188 44 35 -29 44 -96 21 -150 -20
-48 -18 -49 109 -45 l99 3 20 50 c29 76 28 188 -3 242 -47 82 -143 124 -281
122 -41 -1 -97 -7 -125 -14z"/>
<path d="M3595 4096 c-68 -16 -150 -62 -187 -105 -56 -64 -85 -144 -119 -331
-38 -209 -41 -296 -12 -360 43 -98 130 -135 302 -128 172 7 278 64 338 181 18
36 63 218 63 254 0 2 -76 3 -169 3 l-168 0 -6 -37 c-4 -21 -9 -53 -13 -70 l-6
-33 51 0 c28 0 51 -2 51 -5 0 -4 -7 -19 -14 -34 -23 -43 -58 -61 -119 -61 -70
0 -97 26 -97 91 0 67 56 357 75 385 24 37 75 64 121 64 89 0 119 -74 80 -197
-7 -23 -7 -23 103 -23 l110 0 21 58 c46 122 23 237 -61 304 -66 54 -223 74
-344 44z"/>
<path d="M1945 1890 c-3 -4 -30 -149 -61 -322 -61 -342 -61 -365 -11 -402 37
-28 130 -29 170 -3 25 16 28 23 25 70 -3 48 -5 52 -28 52 -21 0 -25 5 -27 30
-2 17 19 152 46 300 26 149 46 273 44 278 -6 10 -152 7 -158 -3z"/>
<path d="M2790 1877 c-18 -40 -111 -601 -104 -629 8 -40 64 -84 124 -98 124
-30 269 21 315 111 20 38 46 162 46 225 1 66 -21 109 -71 134 -43 22 -113 26
-156 10 -15 -6 -29 -8 -32 -6 -2 3 6 61 18 130 12 69 19 129 16 134 -3 6 -37
10 -76 11 -64 1 -71 -1 -80 -22z m186 -387 c26 -10 27 -12 21 -78 -8 -86 -29
-116 -84 -120 -59 -4 -64 8 -46 106 13 68 19 85 37 92 29 12 40 12 72 0z"/>
<path d="M3930 1878 c-11 -28 -110 -595 -110 -631 0 -63 34 -95 109 -104 37
-4 57 0 90 16 l42 22 -3 52 c-3 46 -5 52 -24 49 -45 -6 -44 11 8 306 27 155
47 289 44 297 -4 11 -23 15 -76 15 -64 0 -71 -2 -80 -22z"/>
<path d="M1450 1851 c-72 -22 -148 -90 -176 -158 -22 -52 -64 -289 -64 -361 0
-136 62 -187 230 -187 77 1 105 5 145 23 101 46 148 120 169 265 l7 47 -129 0
-129 0 -7 -37 c-11 -69 -9 -73 29 -73 41 0 44 -12 10 -46 -22 -21 -33 -25 -77
-22 -78 4 -83 21 -58 174 33 196 57 234 144 234 51 0 71 -33 63 -105 l-6 -55
78 0 c92 0 96 4 113 84 19 95 -16 171 -96 207 -43 20 -194 25 -246 10z"/>
<path d="M4380 1851 c-81 -25 -158 -99 -183 -177 -24 -73 -57 -274 -57 -344 0
-84 25 -131 87 -161 41 -20 63 -24 143 -24 195 1 282 82 315 293 l7 42 -131 0
c-118 0 -131 -2 -131 -17 0 -10 -3 -35 -6 -55 l-7 -38 37 0 c42 0 45 -12 11
-45 -19 -20 -34 -25 -73 -25 -81 0 -88 23 -57 197 12 71 29 142 38 159 18 35
54 54 102 54 50 0 70 -33 62 -105 l-6 -55 84 0 83 0 17 64 c29 105 0 181 -85
224 -37 18 -60 22 -135 21 -49 0 -101 -4 -115 -8z"/>
<path d="M2302 1622 c-57 -21 -105 -60 -129 -106 -25 -48 -54 -228 -42 -267
22 -77 70 -103 194 -104 164 0 239 52 270 186 9 41 19 103 21 139 6 78 -13
116 -72 145 -56 28 -174 31 -242 7z m133 -142 c15 -17 16 -26 6 -81 -6 -34
-17 -72 -26 -85 -19 -30 -59 -40 -92 -25 -25 11 -26 14 -20 76 6 66 27 119 49
128 29 12 66 6 83 -13z"/>
<path d="M3385 1624 c-85 -31 -124 -96 -150 -251 -19 -118 -13 -156 36 -197
57 -48 172 -44 226 10 l24 24 28 -33 c27 -29 35 -32 88 -32 40 0 68 6 86 18
24 15 27 24 27 72 0 52 -1 54 -27 52 -39 -3 -40 20 -9 188 15 76 26 140 26
142 0 3 -39 3 -87 2 -49 -1 -101 3 -116 10 -38 15 -103 13 -152 -5z m157 -142
c9 -9 -20 -163 -34 -179 -13 -16 -80 -17 -96 -1 -15 15 -15 66 -1 125 10 36
18 48 43 59 29 13 73 11 88 -4z"/>
<path d="M4933 1626 c-73 -24 -110 -53 -137 -109 -27 -56 -60 -232 -50 -263
26 -83 73 -108 199 -109 164 0 239 52 270 186 9 41 19 103 21 139 6 78 -13
116 -72 145 -49 24 -173 30 -231 11z m122 -146 c15 -17 16 -26 6 -81 -6 -34
-17 -72 -26 -85 -19 -30 -59 -40 -92 -25 -25 11 -26 14 -20 76 6 66 27 119 49
128 29 12 66 6 83 -13z"/>
</g>
</svg>
